{"title":"The.Bachelorette.AU.S01E01.Web-DL.x264-POKE.mp4","uid":12483158,"size":903726571,"categoryP":"video","categoryS":"tv_shows","magnet":"?xt=urn:btih:3185ffaebecffe14806290d2e9ad6815ab584579&amp;dn=The.Bachelorette.AU.S01E01.Web-DL.x264-POKE.mp4&amp;tr=udp%3A%2F%2Ftracker.leechers-paradise.org%3A6969&amp;tr=udp%3A%2F%2Fzer0day.ch%3A1337&amp;tr=udp%3A%2F%2Fopen.demonii.com%3A1337&amp;tr=udp%3A%2F%2Ftracker.coppersurfer.tk%3A6969&amp;tr=udp%3A%2F%2Fexodus.desync.com%3A6969","seeders":3,"leechers":1,"uploader":"TlanImass","files":1,"time":1443081070,"description":"The Bachelorette Australia - Season 1, Episode 1\r\n\r\n\r\nHaving won the nation's heart in The Bachelor Australia 2014, Sam Frost will be looking for love again as Australia's first ever Bachelorette. Will she have more luck in love the second time around?\r\n\r\n\r\nOriginal Air Date: 23-Sep-2015\r\n\r\nGeneral\r\nFormat : MPEG-4\r\nFormat profile : Base Media / Version 2\r\nCodec ID : mp42\r\nFile size : 862 MiB\r\nDuration : 1h 16mn\r\nOverall bit rate mode : Variable\r\nOverall bit rate : 1 579 Kbps\r\nWriting application : HandBrake 6548svn 2014112401\r\n\r\nVideo\r\nID : 1\r\nFormat : AVC\r\nFormat/Info : Advanced Video Codec\r\nFormat profile :   \r\nFormat settings, CABAC : Yes\r\nFormat settings, ReFrames : 4 frames\r\nCodec ID : avc1\r\nCodec ID/Info : Advanced Video Coding\r\nDuration : 1h 16mn\r\nBit rate : 1 413 Kbps\r\nWidth : 720 pixels\r\nHeight : 576 pixels\r\nDisplay aspect ratio : 1.85:1\r\nOriginal display aspect ratio : 1.85:1\r\nFrame rate mode : Constant\r\nFrame rate : 25.000 fps\r\nStandard : PAL\r\nColor space : YUV\r\nChroma subsampling : 4:2:0\r\nBit depth : 8 bits\r\nScan type : Progressive\r\nBits/(Pixel*Frame) : 0.136\r\nStream size : 771 MiB (89%)\r\nWriting library : x264 core 142 r2479 dd79a61\r\nEncoding settings : cabac=1 / ref=1 / deblock=1:0:0 / analyse=0x1:0x111 / me=hex / subme=2 / psy=1 / psy_rd=1.00:0.00 / mixed_ref=0 / me_range=16 / chroma_me=1 / trellis=0 / 8x8dct=0 / cqm=0 / deadzone=21,11 / fast_pskip=1 / chroma_qp_offset=0 / threads=12 / lookahead_threads=4 / sliced_threads=0 / nr=0 / decimate=1 / interlaced=0 / bluray_compat=0 / constrained_intra=0 / bframes=3 / b_pyramid=2 / b_adapt=1 / b_bias=0 / direct=1 / weightb=1 / open_gop=0 / weightp=1 / keyint=250 / keyint_min=25 / scenecut=40 / intra_refresh=0 / rc_lookahead=10 / rc=crf / mbtree=1 / crf=20.0 / qcomp=0.60 / qpmin=0 / qpmax=69 / qpstep=4 / vbv_maxrate=20000 / vbv_bufsize=25000 / crf_max=0.0 / nal_hrd=none / filler=0 / ip_ratio=1.40 / aq=1:1.00\r\nColor primaries : BT.601 PAL\r\nTransfer characteristics : BT.709\r\nMatrix coefficients : BT.601\r\nColor range : Limited\r\n\r\nAudio\r\nID : 2\r\nFormat : AAC\r\nFormat/Info : Advanced Audio Codec\r\nFormat profile : LC\r\nCodec ID : 40\r\nDuration : 1h 16mn\r\nBit rate mode : Variable\r\nBit rate : 160 Kbps\r\nChannel(s) : 2 channels\r\nChannel positions : Front: L R\r\nSampling rate : 48.0 KHz\r\nCompression mode : Lossy\r\nStream size : 87.6 MiB (10%)\r\nTitle : Stereo / Stereo\r\nLanguage : English","torrent":{"xt":"urn:btih:3185ffaebecffe14806290d2e9ad6815ab584579","amp;dn":"The.Bachelorette.AU.S01E01.Web-DL.x264-POKE.mp4","amp;tr":["udp%3A%2F%2Ftracker.leechers-paradise.org%3A6969","udp%3A%2F%2Fzer0day.ch%3A1337","udp%3A%2F%2Fopen.demonii.com%3A1337","udp%3A%2F%2Ftracker.coppersurfer.tk%3A6969","udp%3A%2F%2Fexodus.desync.com%3A6969"],"infoHash":"3185ffaebecffe14806290d2e9ad6815ab584579","infoHashBuffer":{"type":"Buffer","data":[49,133,255,174,190,207,254,20,128,98,144,210,233,173,104,21,171,88,69,121]},"announce":[],"urlList":[]}}